<svg xmlns="http://www.w3.org/2000/svg" xmlns:xlink="http://www.w3.org/1999/xlink" version="1.1" width="214" height="115" viewBox="0 0 214 115">
<defs>
<path id="font_1_113" d="M1.1640015 .63853457V.6855469C1.1369934 .6845398 1.1019898 .6825409 1.0569916 .6825409 1.0189972 .6825409 .95700076 .6825409 .92099 .6855469V.63853457C.94599917 .63853457 .99398806 .63853457 1.022995 .6275482L.8509979 .1809845 .673996 .63853457H.769989V.6855469C.7319946 .6825409 .6380005 .6825409 .59498599 .6825409 .55599978 .6825409 .47698976 .6825409 .44198609 .6855469V.63853457H.5279999L.56900027 .53263857 .43299867 .1809845 .2559967 .63853457H.35198976V.6855469C.31399537 .6825409 .21998596 .6825409 .1769867 .6825409 .13798523 .6825409 .05899048 .6825409 .023986817 .6855469V.63853457H.10998535L.34999085 .018157959C.35598756 .002166748 .3600006-.0078125 .3849945-.0078125 .4099884-.0078125 .4139862 .002166748 .41999818 .018157959L.59399417 .4677124 .7679901 .018157959C.7739868 .002166748 .7779999-.0078125 .8029938-.0078125 .8279877-.0078125 .83200076 .002166748 .83799746 .018157959L1.0690003 .614563C1.074997 .631546 1.0759888 .6335449 1.1069946 .63653567 1.1269989 .63853457 1.147995 .63853457 1.1640015 .63853457Z"/>
<path id="font_1_27" d="M.82699587 0V.04699707H.7299957L.47399903 .6722412C.46299745 .6982422 .45098878 .6982422 .43399049 .6982422 .4059906 .6982422 .4019928 .6902313 .394989 .6722412L.14698792 .07002258C.14099121 .055007936 .13798523 .04699707 .06199646 .04699707H.040985109V0L.1579895 .0029907227C.19699097 .0029907227 .25299073 .0029907227 .2899933 0V.04699707C.2899933 .04699707 .20098877 .04699707 .20098877 .060012819L.20498657 .07203674 .25498963 .19322205H.522995L.58299258 .04699707H.48799134V0C.526001 .0029907227 .62098696 .0029907227 .6639862 .0029907227 .70399478 .0029907227 .7919922 .0029907227 .82699587 0M.5029907 .24023438H.2749939L.3889923 .51823428 .5029907 .24023438Z"/>
<path id="font_1_58" d="M.8450012 .22935486V.2763672C.80999758 .2733612 .72299197 .2733612 .6839905 .2733612 .6259918 .2733612 .5329895 .2733612 .47898866 .2763672V.22935486H.6230011V.1282959C.6230011 .109298709 .6230011 .08027649 .58399966 .057266237 .55799868 .042251588 .526001 .036254884 .49398805 .036254884 .4079895 .036254884 .32199098 .06526184 .272995 .12730408 .22999573 .18232727 .21699524 .25335694 .21699524 .3443451 .21699524 .4563141 .23699951 .5142975 .27398683 .5632782 .31399537 .613266 .3909912 .6502533 .4869995 .6502533 .59399417 .6502533 .68899539 .5742798 .71099856 .4473114 .71398928 .4283142 .71499636 .4263153 .73799136 .4263153 .7639923 .4263153 .7649994 .4283142 .7649994 .4543152V.6692505C.7649994 .68826296 .7649994 .6972656 .746994 .6972656 .73799136 .6972656 .73599246 .69525149 .7279968 .68826296L.6619873 .62927249C.58898928 .68725588 .5169983 .6972656 .46499635 .6972656 .21899414 .6972656 .06399536 .55029299 .06399536 .343338 .06399536 .14431763 .20899964-.0107421879 .46699525-.0107421879 .5-.0107421879 .6029968-.008743286 .6529999 .053253175 .6839905 .026245118 .74398806 .00024414063 .7509918 .00024414063 .7649994 .00024414063 .7649994 .013244629 .7649994 .028244019V.22935486H.8450012Z"/>
<path id="font_1_87" d="M.7969971 .71899417C.7969971 .7389984 .7809906 .75 .7669983 .75 .7519989 .7503052 .7449951 .7413025 .7369995 .731308 .69299319 .67933657 .6279907 .6443939 .5399933 .6443939 .42399598 .6443939 .34399415 .702301 .31399537 .7243042 .29299928 .7389984 .2689972 .75 .23599243 .75 .1519928 .75 .06399536 .6891327 .06399536 .5492401 .06399536 .40385438 .15499878 .34680177 .23599243 .34680177 .30999757 .34680177 .3829956 .40586854 .3829956 .54823306 .3829956 .5662842 .3829956 .6023712 .36799623 .6493683 .43399049 .61938479 .49198915 .60839846 .54100039 .60839846 .56199648 .60839846 .60798647 .61039736 .6579895 .63038638L.17098999 .00030517579C.17098999 .00030517579 .1599884-.013687134 .1599884-.024673462 .1599884-.041671754 .17399597-.055664064 .19099427-.055664064 .20498657-.055664064 .20999146-.04966736 .21699524-.03967285L.7859955 .6953125C.79299929 .7042999 .7969971 .7093048 .7969971 .7192993V.71899417M.8929901 .14509583C.8929901 .29188539 .81599429 .34680177 .74598696 .34680177 .6619873 .34680177 .57398989 .28588868 .57398989 .14608765 .57398989 .0012969971 .6649933-.055664064 .74598696-.055664064 .81999209-.055664064 .8929901 .0032958985 .8929901 .14509583M.33599855 .54907229C.33599855 .41786195 .27598573 .3828125 .23799134 .3828125 .16699219 .3828125 .16699219 .4859619 .16699219 .5480652 .16699219 .6109009 .16699219 .71398928 .23799134 .71398928 .2809906 .71398928 .33599855 .6729584 .33599855 .5488434V.54907229M.84599307 .1459961C.84599307 .015258789 .7859955-.01966858 .7480011-.01966858 .6769867-.01966858 .6769867 .08312988 .6769867 .14500427 .6769867 .20787049 .6769867 .31066896 .7480011 .31066896 .79100039 .31066896 .84599307 .26976014 .84599307 .1459961Z"/>
<path id="font_1_97" d="M.57398989 .20323181C.57398989 .31422425 .49299623 .39523316 .4019928 .41423036L.25698854 .4452362C.21699524 .4542389 .16099549 .48823548 .16099549 .5492401 .16099549 .59225466 .18899536 .6542511 .2889862 .6542511 .36898805 .6542511 .46998597 .6202545 .49299623 .48423768 .49699403 .4602356 .49699403 .4582367 .5179901 .4582367 .5419922 .4582367 .5419922 .46324159 .5419922 .48623658V.6692505C.5419922 .68826296 .5419922 .6972656 .5239868 .6972656 .5159912 .6972656 .5149994 .69625857 .5039978 .68626406L.45899964 .6422577C.40098573 .68826296 .33599855 .6972656 .28799439 .6972656 .13598633 .6972656 .06399536 .6012573 .06399536 .49624635 .06399536 .4312439 .09700012 .38523866 .117996219 .36323548 .16699219 .31422425 .20098877 .30723573 .30999757 .28323365 .397995 .2642212 .4149933 .26123048 .43699647 .24023438 .45199586 .22523499 .47698976 .19923401 .47698976 .15324402 .47698976 .10523987 .45098878 .036254884 .34700013 .036254884 .2709961 .036254884 .11898804 .056243898 .11099243 .20523072 .10998535 .22322083 .10998535 .22822571 .08799744 .22822571 .06399536 .22822571 .06399536 .222229 .06399536 .19923401V.01725769C.06399536-.0017547608 .06399536-.0107421879 .08198547-.0107421879 .09098816-.0107421879 .09298706-.008743286 .100997928-.0017547608L.14698792 .04425049C.21299744-.0047454836 .30599977-.0107421879 .34700013-.0107421879 .5119934-.0107421879 .57398989 .102249149 .57398989 .20323181Z"/>
<path id="font_1_34" d="M.7529907 .18592835C.7529907 .28189088 .6669922 .3488617 .5479889 .35786439 .6559906 .37686158 .72099307 .43678285 .72099307 .51368716 .72099307 .60557559 .6339874 .6855469 .47299195 .6855469H.038986207V.63853457H.14698792V.04699707H.038986207V0H.5029907C.6689911 0 .7529907 .08796692 .7529907 .18592835M.57899478 .51368716C.57899478 .43678285 .5309906 .37486268 .43399049 .37486268H.27799989V.63853457H.45999146C.5609894 .63853457 .57899478 .55963137 .57899478 .51368716M.60598757 .18693543C.60598757 .17492676 .60598757 .04699707 .46199037 .04699707H.27799989V.3388672H.47200013C.49198915 .3388672 .5389862 .3388672 .57299807 .29588319 .60598757 .253891 .60598757 .19792176 .60598757 .18693543Z"/>
<path id="font_2_82" d="M.4189911 0V.0309906H.3869934C.29699708 .0309906 .2939911 .041992189 .2939911 .07902527V.64012148C.2939911 .6640167 .2939911 .6660156 .2709961 .6660156 .20899964 .60227969 .12098694 .60227969 .08898926 .60227969V.57128909C.10899353 .57128909 .16799927 .57128909 .21998596 .5972748V.07902527C.21998596 .042999269 .21699524 .0309906 .1269989 .0309906H.09498596V0C.12998963 .0029907227 .21699524 .0029907227 .25698854 .0029907227 .29699708 .0029907227 .38398744 .0029907227 .4189911 0Z"/>
<path id="font_2_106" d="M.45700074 .17037964C.45700074 .252594 .3939972 .33088685 .2899933 .35191346 .37199403 .37893678 .42999269 .4490509 .42999269 .52809146 .42999269 .6100464 .34199525 .6660156 .24598694 .6660156 .14498902 .6660156 .068984989 .60606387 .068984989 .53009036 .068984989 .49710084 .09098816 .47808839 .11999512 .47808839 .15098572 .47808839 .17098999 .50009158 .17098999 .5290985 .17098999 .57910159 .12399292 .57910159 .10899353 .57910159 .13999939 .62802127 .20599365 .64100649 .24198914 .64100649 .2829895 .64100649 .33799745 .6190338 .33799745 .5290985 .33799745 .51708987 .33599855 .45906068 .30999757 .4149933 .27999879 .36691285 .24598694 .36390687 .22099304 .36291505 .21299744 .36190797 .18899536 .35990907 .18199158 .35990907 .17399597 .35890199 .16699219 .35791017 .16699219 .3479004 .16699219 .33691407 .17399597 .33691407 .19099427 .33691407H.23498535C.31698609 .33691407 .35398866 .2686615 .35398866 .17037964 .35398866 .034469606 .2849884 .0055389406 .24099732 .0055389406 .19799805 .0055389406 .12298584 .022491456 .08799744 .08137512 .12298584 .07637024 .1539917 .09837341 .1539917 .1363678 .1539917 .17237854 .1269989 .19238281 .09799194 .19238281 .07398987 .19238281 .041992189 .17837525 .041992189 .1343689 .041992189 .043441774 .1349945-.022460938 .24398804-.022460938 .3659973-.022460938 .45700074 .06838989 .45700074 .17037964Z"/>
<path id="font_2_121" d="M.45999146 .31976319C.45999146 .39982606 .45498658 .47988893 .41999818 .5539398 .37399293 .65000918 .2919922 .6660156 .25 .6660156 .18998719 .6660156 .116989139 .64001467 .07598877 .54693606 .04399109 .47789 .038986207 .39982606 .038986207 .31976319 .038986207 .24472046 .042999269 .15464783 .083999637 .07859802 .1269989-.0024719239 .19999695-.022460938 .24899292-.022460938 .30299378-.022460938 .3789978-.0014648438 .4229889 .09359741 .45498658 .16265869 .45999146 .2407074 .45999146 .31976319M.3769989 .3317871C.3769989 .25672914 .3769989 .18867493 .3659973 .12461853 .35099793 .029556275 .2939911-.00047302247 .24899292-.00047302247 .20999146-.00047302247 .15098572 .024551392 .1329956 .12062073 .12199402 .18066406 .12199402 .2727356 .12199402 .3317871 .12199402 .39582826 .12199402 .46188355 .12998963 .5159149 .14898682 .63500979 .22399903 .64401248 .24899292 .64401248 .28199769 .64401248 .34799195 .6259918 .36698915 .52693179 .3769989 .47088624 .3769989 .39482118 .3769989 .3317871Z"/>
<path id="font_2_88" d="M.19198609 .052993776C.19198609 .08198547 .16799927 .10598755 .13899231 .10598755 .10998535 .10598755 .085998538 .08198547 .085998538 .052993776 .085998538 .023986817 .10998535 0 .13899231 0 .16799927 0 .19198609 .023986817 .19198609 .052993776Z"/>
<path id="font_2_101" d="M.45700074 .2036438C.45700074 .33070375 .36799623 .4267578 .25698854 .4267578 .18899536 .4267578 .1519928 .37573243 .13198853 .327713V.35173036C.13198853 .6047821 .2559967 .64100649 .30699159 .64100649 .33099366 .64100649 .37298585 .634964 .394989 .6007538 .37998963 .6007538 .33999635 .6007538 .33999635 .5557556 .33999635 .524765 .3639984 .5097656 .38598634 .5097656 .4019928 .5097656 .43199159 .51875308 .43199159 .5577545 .43199159 .6178589 .3880005 .6660156 .30499269 .6660156 .1769867 .6660156 .041992189 .5367584 .041992189 .31570436 .041992189 .048553468 .1579895-.022460938 .25099183-.022460938 .3619995-.022460938 .45700074 .07156372 .45700074 .2036438M.36698915 .20463562C.36698915 .15661621 .36698915 .10658264 .34999085 .0705719 .31999208 .010528564 .27398683 .0055389406 .25099183 .0055389406 .18798828 .0055389406 .1579895 .06556702 .1519928 .080566409 .13398743 .127594 .13398743 .2076416 .13398743 .22564698 .13398743 .30369569 .1659851 .40374757 .2559967 .40374757 .27198792 .40374757 .31799317 .40374757 .34899903 .34172059 .36698915 .30470277 .36698915 .2536621 .36698915 .20463562Z"/>
<path id="font_2_107" d="M.44898988 .17396546H.42399598C.4189911 .14398194 .4119873 .099990848 .4019928 .084991458 .394989 .07699585 .32899476 .07699585 .30699159 .07699585H.1269989L.23298645 .17996216C.3889923 .31803895 .44898988 .37210084 .44898988 .47216798 .44898988 .5860901 .35899354 .6660156 .23699951 .6660156 .12399292 .6660156 .049987794 .57411196 .049987794 .48516847 .049987794 .4291687 .099990848 .4291687 .102996829 .4291687 .11999512 .4291687 .15499878 .44117738 .15499878 .48217774 .15499878 .5081787 .13699341 .5341797 .101989749 .5341797 .09399414 .5341797 .09199524 .5341797 .08898926 .5331726 .11199951 .59806826 .1659851 .63500979 .22399903 .63500979 .31498719 .63500979 .35798646 .5541382 .35798646 .47216798 .35798646 .39196778 .30799867 .31297303 .25299073 .25097657L.06098938 .036987306C.049987794 .025985718 .049987794 .023986817 .049987794 0H.42099L.44898988 .17396546Z"/>
<path id="font_2_57" d="M.47099305 .16503906V.19602967H.37098695V.6507721C.37098695 .6707611 .37098695 .6767578 .35499574 .6767578 .34599305 .6767578 .34298707 .6767578 .33499146 .6647644L.027999878 .19602967V.16503906H.2939911V.07800293C.2939911 .041992189 .2919922 .0309906 .21798706 .0309906H.19699097V0C.23799134 .0029907227 .2899933 .0029907227 .33198548 .0029907227 .37399293 .0029907227 .4269867 .0029907227 .46798707 0V.0309906H.44699098C.37298585 .0309906 .37098695 .041992189 .37098695 .07800293V.16503906H.47099305M.2999878 .19602967H.055999757L.2999878 .56881716V.19602967Z"/>
<path id="font_2_100" d="M.4850006 .6435547H.24198914C.11999512 .6435547 .117996219 .6566467 .11399841 .67578127H.08898926L.055999757 .46954347H.08099365C.083999637 .48554994 .09298706 .54855349 .10598755 .5605469 .11299133 .5665436 .19099427 .5665436 .20399475 .5665436H.41099549L.29899598 .40853883C.20899964 .2735443 .17599488 .13453675 .17599488 .03253174 .17599488 .022537232 .17599488-.022460938 .22200012-.022460938 .2679901-.022460938 .2679901 .022537232 .2679901 .03253174V.08354187C.2679901 .13853455 .2709961 .19354248 .2789917 .24754334 .2829895 .27053834 .29699708 .35653688 .34098817 .41854859L.47599793 .608551C.4850006 .62054446 .4850006 .62254336 .4850006 .6435547Z"/>
<path id="font_2_51" d="M.45700074 .16764832C.45700074 .20367432 .44599916 .24871826 .4079895 .29074098 .3889923 .31176759 .37298585 .32176209 .30899049 .36180116 .3809967 .39881898 .42999269 .4508667 .42999269 .51690676 .42999269 .6089783 .34098817 .6660156 .25 .6660156 .1499939 .6660156 .068984989 .5919647 .068984989 .49890138 .068984989 .48088075 .070999149 .43585206 .11299133 .38882447 .12399292 .3768158 .16099549 .35179139 .18598938 .33477784 .12799073 .30575563 .041992189 .24971009 .041992189 .15063477 .041992189 .044555665 .14399719-.022460938 .24899292-.022460938 .3619995-.022460938 .45700074 .060577394 .45700074 .16764832M.38598634 .51690676C.38598634 .45986939 .34700013 .41183473 .2869873 .3768158L.16299439 .4568634C.116989139 .4868927 .11299133 .5209198 .11299133 .53793337 .11299133 .5989685 .17799378 .64100649 .24899292 .64100649 .32199098 .64100649 .38598634 .588974 .38598634 .51690676M.40699769 .13162232C.40699769 .05757141 .33198548 .0055389406 .25 .0055389406 .1639862 .0055389406 .09199524 .06758118 .09199524 .15063477 .09199524 .2086792 .12399292 .2727356 .20899964 .31976319L.33198548 .24171448C.3600006 .22268677 .40699769 .19267273 .40699769 .13162232Z"/>
<path id="font_2_56" d="M.44898988 .20091248C.44898988 .31991578 .36698915 .41992188 .25898744 .41992188 .21099854 .41992188 .16799927 .4039154 .13198853 .36891175V.5641022C.1519928 .55778506 .18499756 .55078127 .21699524 .55078127 .33999635 .55078127 .4099884 .6418457 .4099884 .65493777 .4099884 .6609802 .40699769 .6660156 .3999939 .6660156 .3999939 .66607668 .39698792 .66607668 .3919983 .66308596 .37199403 .65408328 .32299806 .63378909 .2559967 .63378909 .21598816 .63409426 .16999817 .641098 .12298584 .6621094 .114990238 .6651001 .11099243 .6651001 .11099243 .6651001 .100997928 .66508486 .100997928 .657074 .100997928 .64108279V.3447113C.100997928 .3266449 .100997928 .31861878 .114990238 .31861878 .12199402 .31861878 .12399292 .32164 .12799073 .32765199 .13899231 .34371949 .17599488 .3979187 .25698854 .3979187 .30899049 .3979187 .33399964 .3517456 .34199525 .3336792 .35798646 .2965393 .3600006 .2574005 .3600006 .20721436 .3600006 .17218018 .3600006 .112197879 .33599855 .07032776 .31199647 .031448366 .2749939 .0055389406 .22898865 .0055389406 .1559906 .0055389406 .09899902 .05836487 .08198547 .1171875 .084991458 .11685181 .08799744 .115859989 .09899902 .115859989 .13198853 .115859989 .14898682 .14085388 .14898682 .16485596 .14898682 .18885803 .13198853 .21386719 .09899902 .21386719 .084991458 .21386719 .049987794 .2068634 .049987794 .16085816 .049987794 .07432556 .11898804-.022460938 .23098755-.022460938 .34700013-.022460938 .44898988 .07331848 .44898988 .20019531V.20091248Z"/>
<path id="font_1_42" d="M.7659912 .22724915C.7659912 .24725342 .7589874 .2482605 .74198916 .2482605 .72898867 .2482605 .7200012 .2482605 .71899417 .23124695 .71199038 .09724426 .59098818 .036254884 .48999024 .036254884 .4119873 .036254884 .32798768 .060256959 .27598573 .12124634 .22898865 .17825318 .21699524 .25325013 .21699524 .34326173 .21699524 .39926148 .21998596 .5072632 .2829895 .57325747 .34799195 .63926699 .43499757 .6502533 .4869995 .6502533 .59498599 .6502533 .6899872 .5742645 .71199038 .44725038 .71499636 .42825318 .71598818 .42625428 .7389984 .42625428 .7649994 .42625428 .7659912 .42825318 .7659912 .45425416V.6692505C.7659912 .68826296 .7659912 .6972656 .7480011 .6972656 .7389984 .6972656 .7369995 .69525149 .72898867 .68826296L.6629944 .6292572C.6009979 .67926028 .5339966 .6972656 .46598817 .6972656 .21699524 .6972656 .06399536 .54826357 .06399536 .34326173 .06399536 .13824463 .21699524-.0107421879 .46598817-.0107421879 .6529999-.0107421879 .7659912 .11225891 .7659912 .22724915Z"/>
<path id="font_1_46" d="M.81700137 .33676148C.81700137 .55659487 .6669922 .6855469 .46899415 .6855469H.038986207V.63853457H.14698792V.04699707H.038986207V0H.46998597C.6669922 0 .81700137 .12294006 .81700137 .33676148M.66999819 .33776856C.66999819 .22885132 .6579895 .17588806 .6259918 .13092041 .5779877 .06297302 .48999024 .04699707 .42900086 .04699707H.2829895V.63853457H.42900086C.49499513 .63853457 .5779877 .6195526 .6269989 .5496063 .6619873 .49864198 .66999819 .43069459 .66999819 .33776856Z"/>
<path id="font_2_78" d="M.45700074 .32888795C.45700074 .598114 .34199525 .6660156 .25299073 .6660156 .19799805 .6660156 .14898682 .64801028 .10598755 .6031189 .06498718 .5580902 .041992189 .5160217 .041992189 .44091798 .041992189 .3158722 .12998963 .21777344 .24198914 .21777344 .30299378 .21777344 .34399415 .25979615 .36698915 .3178711V.28582765C.36698915 .05178833 .2630005 .0055389406 .20498657 .0055389406 .18798828 .0055389406 .13398743 .007537842 .10699463 .041778566 .15098572 .041778566 .15899658 .07078552 .15899658 .08778381 .15899658 .118774417 .1349945 .13378906 .11299133 .13378906 .09700012 .13378906 .066986087 .12478638 .066986087 .08578491 .066986087 .018615723 .12098694-.022460938 .20599365-.022460938 .33499146-.022460938 .45700074 .11378479 .45700074 .32888795M.36499024 .42089845C.36499024 .33789063 .33099366 .24076844 .24299622 .24076844 .22698975 .2407074 .18099976 .2407074 .1499939 .30371095 .13198853 .34072877 .13198853 .3908081 .13198853 .43988038 .13198853 .49397279 .13198853 .5410614 .15299988 .578125 .17999268 .62805178 .21798706 .64100649 .25299073 .64100649 .29899598 .64100649 .33198548 .60710147 .34899903 .562088 .36099244 .52989199 .36499024 .46688844 .36499024 .42089845Z"/>
<path id="font_1_54" d="M.6749878 .4391327 .6439972 .6798096H.038986207V.6328125H.14698792V.04699707H.038986207V0C.07699585 .0029907227 .17799378 .0029907227 .22200012 .0029907227 .2709961 .0029907227 .37998963 .0029907227 .42399598 0V.04699707H.2889862V.31724549H.33898927C.43499757 .31724549 .44400025 .2742157 .44400025 .20013428H.4909973V.48106385H.44400025C.44400025 .4071808 .43598939 .3642578 .33898927 .3642578H.2889862V.6328125H.42900086C.58999636 .6328125 .61299136 .5559387 .6279907 .4391327H.6749878Z"/>
</defs>
<path transform="matrix(1.00006,0,0,-1.00005,-17.001,1.997)" stroke-width=".3985" stroke-linecap="butt" stroke-miterlimit="10" stroke-linejoin="miter" fill="none" stroke="#000000" d="M18.262-.202H229.838"/>
<path transform="matrix(1.00006,0,0,-1.00005,-17.001,1.997)" stroke-width=".3985" stroke-linecap="butt" stroke-miterlimit="10" stroke-linejoin="miter" fill="none" stroke="#000000" d="M18.262-12.356V-.401"/>
<path transform="matrix(1.00006,0,0,-1.00005,-17.001,1.997)" stroke-width=".3985" stroke-linecap="butt" stroke-miterlimit="10" stroke-linejoin="miter" fill="none" stroke="#000000" d="M58.062-12.356V-.401"/>
<path transform="matrix(1.00006,0,0,-1.00005,-17.001,1.997)" stroke-width=".3985" stroke-linecap="butt" stroke-miterlimit="10" stroke-linejoin="miter" fill="none" stroke="#000000" d="M60.055-12.356V-.401"/>
<use data-text="W" xlink:href="#font_1_113" transform="matrix(9.963197,0,0,-9.963098,49.034959,10.767438)"/>
<use data-text="A" xlink:href="#font_1_27" transform="matrix(9.963197,0,0,-9.963098,59.615877,10.767438)"/>
<use data-text="G" xlink:href="#font_1_58" transform="matrix(9.963197,0,0,-9.963098,67.95508,10.767438)"/>
<use data-text="W" xlink:href="#font_1_113" transform="matrix(9.963197,0,0,-9.963098,88.90768,10.767438)"/>
<use data-text="A" xlink:href="#font_1_27" transform="matrix(9.963197,0,0,-9.963098,99.488597,10.767438)"/>
<use data-text="G" xlink:href="#font_1_58" transform="matrix(9.963197,0,0,-9.963098,107.8278,10.767438)"/>
<use data-text="%" xlink:href="#font_1_87" transform="matrix(9.963197,0,0,-9.963098,116.834529,10.767438)"/>
<use data-text="S" xlink:href="#font_1_97" transform="matrix(9.963197,0,0,-9.963098,138.32514,10.767438)"/>
<use data-text="B" xlink:href="#font_1_34" transform="matrix(9.963197,0,0,-9.963098,144.69162,10.767438)"/>
<use data-text="G" xlink:href="#font_1_58" transform="matrix(9.963197,0,0,-9.963098,152.84152,10.767438)"/>
<use data-text="S" xlink:href="#font_1_97" transform="matrix(9.963197,0,0,-9.963098,173.80411,10.767438)"/>
<use data-text="B" xlink:href="#font_1_34" transform="matrix(9.963197,0,0,-9.963098,180.1706,10.767438)"/>
<use data-text="G" xlink:href="#font_1_58" transform="matrix(9.963197,0,0,-9.963098,188.3205,10.767438)"/>
<use data-text="%" xlink:href="#font_1_87" transform="matrix(9.963197,0,0,-9.963098,197.32721,10.767438)"/>
<path transform="matrix(1.00006,0,0,-1.00005,-17.001,1.997)" stroke-width=".3985" stroke-linecap="butt" stroke-miterlimit="10" stroke-linejoin="miter" fill="none" stroke="#000000" d="M229.838-12.356V-.401"/>
<path transform="matrix(1.00006,0,0,-1.00005,-17.001,1.997)" stroke-width=".3985" stroke-linecap="butt" stroke-miterlimit="10" stroke-linejoin="miter" fill="none" stroke="#000000" d="M18.262-12.556H229.838"/>
<path transform="matrix(1.00006,0,0,-1.00005,-17.001,1.997)" stroke-width=".3985" stroke-linecap="butt" stroke-miterlimit="10" stroke-linejoin="miter" fill="none" stroke="#000000" d="M18.262-24.71V-12.755"/>
<use data-text="A" xlink:href="#font_1_27" transform="matrix(9.963197,0,0,-9.963098,16.83403,23.121054)"/>
<path transform="matrix(1.00006,0,0,-1.00005,-17.001,1.997)" stroke-width=".3985" stroke-linecap="butt" stroke-miterlimit="10" stroke-linejoin="miter" fill="none" stroke="#000000" d="M58.062-24.71V-12.755"/>
<path transform="matrix(1.00006,0,0,-1.00005,-17.001,1.997)" stroke-width=".3985" stroke-linecap="butt" stroke-miterlimit="10" stroke-linejoin="miter" fill="none" stroke="#000000" d="M60.055-24.71V-12.755"/>
<use data-text="1" xlink:href="#font_2_82" transform="matrix(9.963197,0,0,-9.963098,58.012506,23.121054)"/>
<use data-text="3" xlink:href="#font_2_106" transform="matrix(9.963197,0,0,-9.963098,62.994104,23.121054)"/>
<use data-text="1" xlink:href="#font_2_82" transform="matrix(9.963197,0,0,-9.963098,96.28114,23.121054)"/>
<use data-text="0" xlink:href="#font_2_121" transform="matrix(9.963197,0,0,-9.963098,101.26274,23.121054)"/>
<use data-text="." xlink:href="#font_2_88" transform="matrix(9.963197,0,0,-9.963098,106.24435,23.121054)"/>
<use data-text="6" xlink:href="#font_2_101" transform="matrix(9.963197,0,0,-9.963098,109.01411,23.121054)"/>
<use data-text="6" xlink:href="#font_2_101" transform="matrix(9.963197,0,0,-9.963098,113.995708,23.121054)"/>
<use data-text="2" xlink:href="#font_2_107" transform="matrix(9.963197,0,0,-9.963098,145.1008,23.121054)"/>
<use data-text="4" xlink:href="#font_2_57" transform="matrix(9.963197,0,0,-9.963098,150.0824,23.121054)"/>
<use data-text="1" xlink:href="#font_2_82" transform="matrix(9.963197,0,0,-9.963098,178.9856,23.121054)"/>
<use data-text="6" xlink:href="#font_2_101" transform="matrix(9.963197,0,0,-9.963098,183.9672,23.121054)"/>
<use data-text="." xlink:href="#font_2_88" transform="matrix(9.963197,0,0,-9.963098,188.94879,23.121054)"/>
<use data-text="6" xlink:href="#font_2_101" transform="matrix(9.963197,0,0,-9.963098,191.71857,23.121054)"/>
<use data-text="7" xlink:href="#font_2_100" transform="matrix(9.963197,0,0,-9.963098,196.70017,23.121054)"/>
<path transform="matrix(1.00006,0,0,-1.00005,-17.001,1.997)" stroke-width=".3985" stroke-linecap="butt" stroke-miterlimit="10" stroke-linejoin="miter" fill="none" stroke="#000000" d="M229.838-24.71V-12.755"/>
<path transform="matrix(1.00006,0,0,-1.00005,-17.001,1.997)" stroke-width=".3985" stroke-linecap="butt" stroke-miterlimit="10" stroke-linejoin="miter" fill="none" stroke="#000000" d="M18.262-36.665V-24.71"/>
<use data-text="B" xlink:href="#font_1_34" transform="matrix(9.963197,0,0,-9.963098,17.088047,35.077653)"/>
<path transform="matrix(1.00006,0,0,-1.00005,-17.001,1.997)" stroke-width=".3985" stroke-linecap="butt" stroke-miterlimit="10" stroke-linejoin="miter" fill="none" stroke="#000000" d="M58.062-36.665V-24.71"/>
<path transform="matrix(1.00006,0,0,-1.00005,-17.001,1.997)" stroke-width=".3985" stroke-linecap="butt" stroke-miterlimit="10" stroke-linejoin="miter" fill="none" stroke="#000000" d="M60.055-36.665V-24.71"/>
<use data-text="1" xlink:href="#font_2_82" transform="matrix(9.963197,0,0,-9.963098,58.012506,35.077653)"/>
<use data-text="8" xlink:href="#font_2_51" transform="matrix(9.963197,0,0,-9.963098,62.994104,35.077653)"/>
<use data-text="1" xlink:href="#font_2_82" transform="matrix(9.963197,0,0,-9.963098,96.28114,35.077653)"/>
<use data-text="4" xlink:href="#font_2_57" transform="matrix(9.963197,0,0,-9.963098,101.26274,35.077653)"/>
<use data-text="." xlink:href="#font_2_88" transform="matrix(9.963197,0,0,-9.963098,106.24435,35.077653)"/>
<use data-text="7" xlink:href="#font_2_100" transform="matrix(9.963197,0,0,-9.963098,109.01411,35.077653)"/>
<use data-text="5" xlink:href="#font_2_56" transform="matrix(9.963197,0,0,-9.963098,113.995708,35.077653)"/>
<use data-text="2" xlink:href="#font_2_107" transform="matrix(9.963197,0,0,-9.963098,145.1008,35.077653)"/>
<use data-text="7" xlink:href="#font_2_100" transform="matrix(9.963197,0,0,-9.963098,150.0824,35.077653)"/>
<use data-text="1" xlink:href="#font_2_82" transform="matrix(9.963197,0,0,-9.963098,178.9856,35.077653)"/>
<use data-text="8" xlink:href="#font_2_51" transform="matrix(9.963197,0,0,-9.963098,183.9672,35.077653)"/>
<use data-text="." xlink:href="#font_2_88" transform="matrix(9.963197,0,0,-9.963098,188.94879,35.077653)"/>
<use data-text="7" xlink:href="#font_2_100" transform="matrix(9.963197,0,0,-9.963098,191.71857,35.077653)"/>
<use data-text="5" xlink:href="#font_2_56" transform="matrix(9.963197,0,0,-9.963098,196.70017,35.077653)"/>
<path transform="matrix(1.00006,0,0,-1.00005,-17.001,1.997)" stroke-width=".3985" stroke-linecap="butt" stroke-miterlimit="10" stroke-linejoin="miter" fill="none" stroke="#000000" d="M229.838-36.665V-24.71"/>
<path transform="matrix(1.00006,0,0,-1.00005,-17.001,1.997)" stroke-width=".3985" stroke-linecap="butt" stroke-miterlimit="10" stroke-linejoin="miter" fill="none" stroke="#000000" d="M18.262-48.62V-36.665"/>
<use data-text="C" xlink:href="#font_1_42" transform="matrix(9.963197,0,0,-9.963098,17.02304,47.033254)"/>
<path transform="matrix(1.00006,0,0,-1.00005,-17.001,1.997)" stroke-width=".3985" stroke-linecap="butt" stroke-miterlimit="10" stroke-linejoin="miter" fill="none" stroke="#000000" d="M58.062-48.62V-36.665"/>
<path transform="matrix(1.00006,0,0,-1.00005,-17.001,1.997)" stroke-width=".3985" stroke-linecap="butt" stroke-miterlimit="10" stroke-linejoin="miter" fill="none" stroke="#000000" d="M60.055-48.62V-36.665"/>
<use data-text="2" xlink:href="#font_2_107" transform="matrix(9.963197,0,0,-9.963098,58.012506,47.033254)"/>
<use data-text="6" xlink:href="#font_2_101" transform="matrix(9.963197,0,0,-9.963098,62.994104,47.033254)"/>
<use data-text="2" xlink:href="#font_2_107" transform="matrix(9.963197,0,0,-9.963098,96.28114,47.033254)"/>
<use data-text="1" xlink:href="#font_2_82" transform="matrix(9.963197,0,0,-9.963098,101.26274,47.033254)"/>
<use data-text="." xlink:href="#font_2_88" transform="matrix(9.963197,0,0,-9.963098,106.24435,47.033254)"/>
<use data-text="3" xlink:href="#font_2_106" transform="matrix(9.963197,0,0,-9.963098,109.01411,47.033254)"/>
<use data-text="1" xlink:href="#font_2_82" transform="matrix(9.963197,0,0,-9.963098,113.995708,47.033254)"/>
<use data-text="2" xlink:href="#font_2_107" transform="matrix(9.963197,0,0,-9.963098,145.1008,47.033254)"/>
<use data-text="2" xlink:href="#font_2_107" transform="matrix(9.963197,0,0,-9.963098,150.0824,47.033254)"/>
<use data-text="1" xlink:href="#font_2_82" transform="matrix(9.963197,0,0,-9.963098,178.9856,47.033254)"/>
<use data-text="5" xlink:href="#font_2_56" transform="matrix(9.963197,0,0,-9.963098,183.9672,47.033254)"/>
<use data-text="." xlink:href="#font_2_88" transform="matrix(9.963197,0,0,-9.963098,188.94879,47.033254)"/>
<use data-text="2" xlink:href="#font_2_107" transform="matrix(9.963197,0,0,-9.963098,191.71857,47.033254)"/>
<use data-text="8" xlink:href="#font_2_51" transform="matrix(9.963197,0,0,-9.963098,196.70017,47.033254)"/>
<path transform="matrix(1.00006,0,0,-1.00005,-17.001,1.997)" stroke-width=".3985" stroke-linecap="butt" stroke-miterlimit="10" stroke-linejoin="miter" fill="none" stroke="#000000" d="M229.838-48.62V-36.665"/>
<path transform="matrix(1.00006,0,0,-1.00005,-17.001,1.997)" stroke-width=".3985" stroke-linecap="butt" stroke-miterlimit="10" stroke-linejoin="miter" fill="none" stroke="#000000" d="M18.262-60.575V-48.62"/>
<use data-text="D" xlink:href="#font_1_46" transform="matrix(9.963197,0,0,-9.963098,16.769028,58.988847)"/>
<path transform="matrix(1.00006,0,0,-1.00005,-17.001,1.997)" stroke-width=".3985" stroke-linecap="butt" stroke-miterlimit="10" stroke-linejoin="miter" fill="none" stroke="#000000" d="M58.062-60.575V-48.62"/>
<path transform="matrix(1.00006,0,0,-1.00005,-17.001,1.997)" stroke-width=".3985" stroke-linecap="butt" stroke-miterlimit="10" stroke-linejoin="miter" fill="none" stroke="#000000" d="M60.055-60.575V-48.62"/>
<use data-text="1" xlink:href="#font_2_82" transform="matrix(9.963197,0,0,-9.963098,58.012506,58.988847)"/>
<use data-text="2" xlink:href="#font_2_107" transform="matrix(9.963197,0,0,-9.963098,62.994104,58.988847)"/>
<use data-text="9" xlink:href="#font_2_78" transform="matrix(9.963197,0,0,-9.963098,98.781948,58.988847)"/>
<use data-text="." xlink:href="#font_2_88" transform="matrix(9.963197,0,0,-9.963098,103.76354,58.988847)"/>
<use data-text="8" xlink:href="#font_2_51" transform="matrix(9.963197,0,0,-9.963098,106.53331,58.988847)"/>
<use data-text="4" xlink:href="#font_2_57" transform="matrix(9.963197,0,0,-9.963098,111.5149,58.988847)"/>
<use data-text="1" xlink:href="#font_2_82" transform="matrix(9.963197,0,0,-9.963098,145.10083,58.988847)"/>
<use data-text="2" xlink:href="#font_2_107" transform="matrix(9.963197,0,0,-9.963098,150.08243,58.988847)"/>
<use data-text="8" xlink:href="#font_2_51" transform="matrix(9.963197,0,0,-9.963098,181.47647,58.988847)"/>
<use data-text="." xlink:href="#font_2_88" transform="matrix(9.963197,0,0,-9.963098,186.45804,58.988847)"/>
<use data-text="3" xlink:href="#font_2_106" transform="matrix(9.963197,0,0,-9.963098,189.22782,58.988847)"/>
<use data-text="3" xlink:href="#font_2_106" transform="matrix(9.963197,0,0,-9.963098,194.20941,58.988847)"/>
<path transform="matrix(1.00006,0,0,-1.00005,-17.001,1.997)" stroke-width=".3985" stroke-linecap="butt" stroke-miterlimit="10" stroke-linejoin="miter" fill="none" stroke="#000000" d="M229.838-60.575V-48.62"/>
<path transform="matrix(1.00006,0,0,-1.00005,-17.001,1.997)" stroke-width=".3985" stroke-linecap="butt" stroke-miterlimit="10" stroke-linejoin="miter" fill="none" stroke="#000000" d="M18.262-72.531V-60.575"/>
<use data-text="F" xlink:href="#font_1_54" transform="matrix(9.963197,0,0,-9.963098,17.556073,70.94444)"/>
<path transform="matrix(1.00006,0,0,-1.00005,-17.001,1.997)" stroke-width=".3985" stroke-linecap="butt" stroke-miterlimit="10" stroke-linejoin="miter" fill="none" stroke="#000000" d="M58.062-72.531V-60.575"/>
<path transform="matrix(1.00006,0,0,-1.00005,-17.001,1.997)" stroke-width=".3985" stroke-linecap="butt" stroke-miterlimit="10" stroke-linejoin="miter" fill="none" stroke="#000000" d="M60.055-72.531V-60.575"/>
<use data-text="2" xlink:href="#font_2_107" transform="matrix(9.963197,0,0,-9.963098,58.012506,70.94444)"/>
<use data-text="1" xlink:href="#font_2_82" transform="matrix(9.963197,0,0,-9.963098,62.994104,70.94444)"/>
<use data-text="1" xlink:href="#font_2_82" transform="matrix(9.963197,0,0,-9.963098,96.28114,70.94444)"/>
<use data-text="7" xlink:href="#font_2_100" transform="matrix(9.963197,0,0,-9.963098,101.26274,70.94444)"/>
<use data-text="." xlink:href="#font_2_88" transform="matrix(9.963197,0,0,-9.963098,106.24435,70.94444)"/>
<use data-text="2" xlink:href="#font_2_107" transform="matrix(9.963197,0,0,-9.963098,109.01411,70.94444)"/>
<use data-text="1" xlink:href="#font_2_82" transform="matrix(9.963197,0,0,-9.963098,113.995708,70.94444)"/>
<use data-text="2" xlink:href="#font_2_107" transform="matrix(9.963197,0,0,-9.963098,145.1008,70.94444)"/>
<use data-text="3" xlink:href="#font_2_106" transform="matrix(9.963197,0,0,-9.963098,150.0824,70.94444)"/>
<use data-text="1" xlink:href="#font_2_82" transform="matrix(9.963197,0,0,-9.963098,178.9856,70.94444)"/>
<use data-text="5" xlink:href="#font_2_56" transform="matrix(9.963197,0,0,-9.963098,183.9672,70.94444)"/>
<use data-text="." xlink:href="#font_2_88" transform="matrix(9.963197,0,0,-9.963098,188.94879,70.94444)"/>
<use data-text="9" xlink:href="#font_2_78" transform="matrix(9.963197,0,0,-9.963098,191.71857,70.94444)"/>
<use data-text="7" xlink:href="#font_2_100" transform="matrix(9.963197,0,0,-9.963098,196.70017,70.94444)"/>
<path transform="matrix(1.00006,0,0,-1.00005,-17.001,1.997)" stroke-width=".3985" stroke-linecap="butt" stroke-miterlimit="10" stroke-linejoin="miter" fill="none" stroke="#000000" d="M229.838-72.531V-60.575"/>
<path transform="matrix(1.00006,0,0,-1.00005,-17.001,1.997)" stroke-width=".3985" stroke-linecap="butt" stroke-miterlimit="10" stroke-linejoin="miter" fill="none" stroke="#000000" d="M18.262-84.486V-72.531"/>
<use data-text="W" xlink:href="#font_1_113" transform="matrix(9.963197,0,0,-9.963098,15.239933,82.90005)"/>
<path transform="matrix(1.00006,0,0,-1.00005,-17.001,1.997)" stroke-width=".3985" stroke-linecap="butt" stroke-miterlimit="10" stroke-linejoin="miter" fill="none" stroke="#000000" d="M58.062-84.486V-72.531"/>
<path transform="matrix(1.00006,0,0,-1.00005,-17.001,1.997)" stroke-width=".3985" stroke-linecap="butt" stroke-miterlimit="10" stroke-linejoin="miter" fill="none" stroke="#000000" d="M60.055-84.486V-72.531"/>
<use data-text="3" xlink:href="#font_2_106" transform="matrix(9.963197,0,0,-9.963098,58.012506,82.90005)"/>
<use data-text="2" xlink:href="#font_2_107" transform="matrix(9.963197,0,0,-9.963098,62.994104,82.90005)"/>
<use data-text="2" xlink:href="#font_2_107" transform="matrix(9.963197,0,0,-9.963098,96.28114,82.90005)"/>
<use data-text="6" xlink:href="#font_2_101" transform="matrix(9.963197,0,0,-9.963098,101.26274,82.90005)"/>
<use data-text="." xlink:href="#font_2_88" transform="matrix(9.963197,0,0,-9.963098,106.24435,82.90005)"/>
<use data-text="2" xlink:href="#font_2_107" transform="matrix(9.963197,0,0,-9.963098,109.01411,82.90005)"/>
<use data-text="3" xlink:href="#font_2_106" transform="matrix(9.963197,0,0,-9.963098,113.995708,82.90005)"/>
<use data-text="3" xlink:href="#font_2_106" transform="matrix(9.963197,0,0,-9.963098,145.1008,82.90005)"/>
<use data-text="6" xlink:href="#font_2_101" transform="matrix(9.963197,0,0,-9.963098,150.0824,82.90005)"/>
<use data-text="2" xlink:href="#font_2_107" transform="matrix(9.963197,0,0,-9.963098,181.47641,82.90005)"/>
<use data-text="5" xlink:href="#font_2_56" transform="matrix(9.963197,0,0,-9.963098,186.45801,82.90005)"/>
<use data-text="." xlink:href="#font_2_88" transform="matrix(9.963197,0,0,-9.963098,191.4396,82.90005)"/>
<use data-text="0" xlink:href="#font_2_121" transform="matrix(9.963197,0,0,-9.963098,194.20938,82.90005)"/>
<path transform="matrix(1.00006,0,0,-1.00005,-17.001,1.997)" stroke-width=".3985" stroke-linecap="butt" stroke-miterlimit="10" stroke-linejoin="miter" fill="none" stroke="#000000" d="M229.838-84.486V-72.531"/>
<path transform="matrix(1.00006,0,0,-1.00005,-17.001,1.997)" stroke-width=".3985" stroke-linecap="butt" stroke-miterlimit="10" stroke-linejoin="miter" fill="none" stroke="#000000" d="M18.262-84.685H229.838"/>
<path transform="matrix(1.00006,0,0,-1.00005,-17.001,1.997)" stroke-width=".3985" stroke-linecap="butt" stroke-miterlimit="10" stroke-linejoin="miter" fill="none" stroke="#000000" d="M18.262-86.678H229.838"/>
<path transform="matrix(1.00006,0,0,-1.00005,-17.001,1.997)" stroke-width=".3985" stroke-linecap="butt" stroke-miterlimit="10" stroke-linejoin="miter" fill="none" stroke="#000000" d="M18.262-98.832V-86.877"/>
<use data-text="A" xlink:href="#font_1_27" transform="matrix(9.963197,0,0,-9.963098,8.619535,97.246768)"/>
<use data-text="B" xlink:href="#font_1_34" transform="matrix(9.963197,0,0,-9.963098,17.277554,97.246768)"/>
<use data-text="C" xlink:href="#font_1_42" transform="matrix(9.963197,0,0,-9.963098,25.427449,97.246768)"/>
<path transform="matrix(1.00006,0,0,-1.00005,-17.001,1.997)" stroke-width=".3985" stroke-linecap="butt" stroke-miterlimit="10" stroke-linejoin="miter" fill="none" stroke="#000000" d="M58.062-98.832V-86.877"/>
<path transform="matrix(1.00006,0,0,-1.00005,-17.001,1.997)" stroke-width=".3985" stroke-linecap="butt" stroke-miterlimit="10" stroke-linejoin="miter" fill="none" stroke="#000000" d="M60.055-98.832V-86.877"/>
<use data-text="5" xlink:href="#font_2_56" transform="matrix(9.963197,0,0,-9.963098,58.012506,97.246768)"/>
<use data-text="7" xlink:href="#font_2_100" transform="matrix(9.963197,0,0,-9.963098,62.994104,97.246768)"/>
<use data-text="4" xlink:href="#font_2_57" transform="matrix(9.963197,0,0,-9.963098,96.28114,97.246768)"/>
<use data-text="6" xlink:href="#font_2_101" transform="matrix(9.963197,0,0,-9.963098,101.26274,97.246768)"/>
<use data-text="." xlink:href="#font_2_88" transform="matrix(9.963197,0,0,-9.963098,106.24435,97.246768)"/>
<use data-text="7" xlink:href="#font_2_100" transform="matrix(9.963197,0,0,-9.963098,109.01411,97.246768)"/>
<use data-text="2" xlink:href="#font_2_107" transform="matrix(9.963197,0,0,-9.963098,113.995708,97.246768)"/>
<use data-text="7" xlink:href="#font_2_100" transform="matrix(9.963197,0,0,-9.963098,145.1008,97.246768)"/>
<use data-text="3" xlink:href="#font_2_106" transform="matrix(9.963197,0,0,-9.963098,150.0824,97.246768)"/>
<use data-text="5" xlink:href="#font_2_56" transform="matrix(9.963197,0,0,-9.963098,178.9856,97.246768)"/>
<use data-text="0" xlink:href="#font_2_121" transform="matrix(9.963197,0,0,-9.963098,183.9672,97.246768)"/>
<use data-text="." xlink:href="#font_2_88" transform="matrix(9.963197,0,0,-9.963098,188.94879,97.246768)"/>
<use data-text="6" xlink:href="#font_2_101" transform="matrix(9.963197,0,0,-9.963098,191.71857,97.246768)"/>
<use data-text="9" xlink:href="#font_2_78" transform="matrix(9.963197,0,0,-9.963098,196.70017,97.246768)"/>
<path transform="matrix(1.00006,0,0,-1.00005,-17.001,1.997)" stroke-width=".3985" stroke-linecap="butt" stroke-miterlimit="10" stroke-linejoin="miter" fill="none" stroke="#000000" d="M229.838-98.832V-86.877"/>
<path transform="matrix(1.00006,0,0,-1.00005,-17.001,1.997)" stroke-width=".3985" stroke-linecap="butt" stroke-miterlimit="10" stroke-linejoin="miter" fill="none" stroke="#000000" d="M18.262-110.787V-98.832"/>
<use data-text="D" xlink:href="#font_1_46" transform="matrix(9.963197,0,0,-9.963098,7.2394545,109.203357)"/>
<use data-text="F" xlink:href="#font_1_54" transform="matrix(9.963197,0,0,-9.963098,16.026993,109.203357)"/>
<use data-text="W" xlink:href="#font_1_113" transform="matrix(9.963197,0,0,-9.963098,23.240349,109.203357)"/>
<path transform="matrix(1.00006,0,0,-1.00005,-17.001,1.997)" stroke-width=".3985" stroke-linecap="butt" stroke-miterlimit="10" stroke-linejoin="miter" fill="none" stroke="#000000" d="M58.062-110.787V-98.832"/>
<path transform="matrix(1.00006,0,0,-1.00005,-17.001,1.997)" stroke-width=".3985" stroke-linecap="butt" stroke-miterlimit="10" stroke-linejoin="miter" fill="none" stroke="#000000" d="M60.055-110.787V-98.832"/>
<use data-text="6" xlink:href="#font_2_101" transform="matrix(9.963197,0,0,-9.963098,58.012506,109.203357)"/>
<use data-text="5" xlink:href="#font_2_56" transform="matrix(9.963197,0,0,-9.963098,62.994104,109.203357)"/>
<use data-text="5" xlink:href="#font_2_56" transform="matrix(9.963197,0,0,-9.963098,96.28114,109.203357)"/>
<use data-text="3" xlink:href="#font_2_106" transform="matrix(9.963197,0,0,-9.963098,101.26274,109.203357)"/>
<use data-text="." xlink:href="#font_2_88" transform="matrix(9.963197,0,0,-9.963098,106.24435,109.203357)"/>
<use data-text="2" xlink:href="#font_2_107" transform="matrix(9.963197,0,0,-9.963098,109.01411,109.203357)"/>
<use data-text="8" xlink:href="#font_2_51" transform="matrix(9.963197,0,0,-9.963098,113.995708,109.203357)"/>
<use data-text="7" xlink:href="#font_2_100" transform="matrix(9.963197,0,0,-9.963098,145.1008,109.203357)"/>
<use data-text="1" xlink:href="#font_2_82" transform="matrix(9.963197,0,0,-9.963098,150.0824,109.203357)"/>
<use data-text="4" xlink:href="#font_2_57" transform="matrix(9.963197,0,0,-9.963098,178.9856,109.203357)"/>
<use data-text="9" xlink:href="#font_2_78" transform="matrix(9.963197,0,0,-9.963098,183.9672,109.203357)"/>
<use data-text="." xlink:href="#font_2_88" transform="matrix(9.963197,0,0,-9.963098,188.94879,109.203357)"/>
<use data-text="3" xlink:href="#font_2_106" transform="matrix(9.963197,0,0,-9.963098,191.71857,109.203357)"/>
<use data-text="1" xlink:href="#font_2_82" transform="matrix(9.963197,0,0,-9.963098,196.70017,109.203357)"/>
<path transform="matrix(1.00006,0,0,-1.00005,-17.001,1.997)" stroke-width=".3985" stroke-linecap="butt" stroke-miterlimit="10" stroke-linejoin="miter" fill="none" stroke="#000000" d="M229.838-110.787V-98.832"/>
<path transform="matrix(1.00006,0,0,-1.00005,-17.001,1.997)" stroke-width=".3985" stroke-linecap="butt" stroke-miterlimit="10" stroke-linejoin="miter" fill="none" stroke="#000000" d="M18.262-110.986H229.838"/>
</svg>
